# xmcd
# 
# Track frame offsets:
#     150
#     7758
#     29960
#     46586
#     68772
#     89291
#     101565
#     107821
#     130590
#     139175
#     160727
#     185615
# 
# Disc length: 2895
# 
# Revision: 0
# Processed by: cddbd v1.5.2PL0 Copyright (c) Steve Scherf et al.
# Submitted via: fre:ac v1.0.31
# 
DISCID=960b4d0c
DTITLE=Edgar Trio - Edgar Trio
DYEAR=2019
DGENRE=Celtic
TTITLE0=La marche a Lulu
TTITLE1=Le chant des lucioles (Rond de Saint-Vincent)
TTITLE2=Dans Plinn
TTITLE3=Edgar de R'don (Ridees)
TTITLE4=Scotia (Scottisch)
TTITLE5=Loudeac - 1er Rond
TTITLE6=Loudeac - Baleu
TTITLE7=Loudeac - 2e Rond
TTITLE8=Loudeac - Riquegnee
TTITLE9=La cle de l'ambre (Laride)
TTITLE10=Le feu dans la baraque (Tour)
TTITLE11=Tan Dei (Suite Fisel)
EXTD=
EXTT0=
EXTT1=
EXTT2=
EXTT3=
EXTT4=
EXTT5=
EXTT6=
EXTT7=
EXTT8=
EXTT9=
EXTT10=
EXTT11=
PLAYORDER=
